<?xml version="1.0" encoding="utf-8"?>
<!-- Generator: Adobe Illustrator 16.0.0, SVG Export Plug-In . SVG Version: 6.00 Build 0)  -->
<!DOCTYPE svg PUBLIC "-//W3C//DTD SVG 1.0//EN" "http://www.w3.org/TR/2001/REC-SVG-20010904/DTD/svg10.dtd">
<svg version="1.0" id="Layer_1" xmlns="http://www.w3.org/2000/svg" xmlns:xlink="http://www.w3.org/1999/xlink" x="0px" y="0px"
	 width="100px" height="100px" viewBox="0 0 100 100" enable-background="new 0 0 100 100" xml:space="preserve">
<g>
	<path fill="#FF5000" d="M80.339,100H19.661C8.803,100,0,91.197,0,80.34V19.661C0,8.803,8.803,0,19.661,0h60.678
		C91.197,0,100,8.803,100,19.661V80.34C100,91.197,91.197,100,80.339,100"/>
	<path fill="#FFFFFF" d="M31.261,65.365c0.162-6.169,0.297-12.339,0.502-18.506c0.05-1.545-0.469-2.598-1.801-3.421
		c-3.453-2.131-5.253-5.449-6.173-9.26c-1.413-5.849-0.895-11.488,2.446-16.625c2.071-3.185,4.905-5.262,8.958-4.9
		c2.825,0.252,4.938,1.823,6.599,3.997c3.104,4.065,4.061,8.757,3.716,13.758c-0.25,3.612-1.229,7.027-3.482,9.915
		c-0.941,1.206-2.153,2.259-3.405,3.15c-1.188,0.844-1.781,1.78-1.737,3.247c0.354,11.72,0.674,23.441,1.004,35.162
		c0.022,0.798,0.068,1.598,0.071,2.396c0.009,1.855-1.076,2.987-2.933,3.068c-0.472,0.021-0.945,0.025-1.416-0.002
		c-1.799-0.105-2.874-1.223-2.837-3.036c0.093-4.536,0.235-9.072,0.331-13.608c0.038-1.777,0.007-3.557,0.007-5.335H31.261z"/>
	<path fill="#FFFFFF" d="M63.11,65.265c0.183-6.17,0.365-12.34,0.546-18.51c0.06-2.064-0.388-2.802-2.28-3.6
		c-3.367-1.421-4.788-4.273-5.254-7.596c-0.907-6.463-1.109-12.94,0.399-19.37c0.283-1.208,0.842-2.161,2.044-2.618
		c1.069-0.407,1.481-0.155,1.541,0.994c0.116,2.176,0.195,4.353,0.277,6.529c0.099,2.576,0.157,5.154,0.299,7.729
		c0.036,0.665,0.201,1.382,0.516,1.96c0.509,0.934,1.557,0.928,2.082,0.001c0.29-0.511,0.441-1.156,0.471-1.75
		c0.219-4.533,0.397-9.067,0.578-13.603c0.064-1.595,0.466-2.06,1.845-2.068c1.433-0.009,1.834,0.459,1.899,2.129
		c0.175,4.498,0.345,8.997,0.571,13.494c0.033,0.655,0.249,1.367,0.588,1.927c0.469,0.771,1.433,0.775,1.877-0.006
		c0.358-0.63,0.57-1.417,0.604-2.146c0.217-4.605,0.361-9.214,0.541-13.821c0.063-1.643,0.801-2.086,2.086-1.065
		c0.699,0.556,1.256,1.505,1.505,2.383c1.123,3.954,1.236,8.031,0.998,12.099c-0.173,2.957-0.428,5.936-0.991,8.839
		c-0.561,2.893-2.33,5.024-5.194,6.106c-1.404,0.531-1.961,1.62-1.919,3.083c0.323,11.579,0.642,23.156,0.961,34.735
		c0.03,1.125,0.095,2.251,0.08,3.376c-0.02,1.468-0.956,2.598-2.39,2.805c-0.78,0.113-1.602,0.115-2.384,0.01
		c-1.534-0.209-2.441-1.351-2.406-2.99c0.087-4.065,0.229-8.131,0.308-12.196c0.045-2.285,0.008-4.573,0.008-6.859H63.11z"/>
</g>
<g>
</g>
<g>
</g>
<g>
</g>
<g>
</g>
<g>
</g>
<g>
</g>
</svg>
