<?xml version="1.0" encoding="utf-8"?>
<!-- Generator: Adobe Illustrator 16.0.0, SVG Export Plug-In . SVG Version: 6.00 Build 0)  -->
<!DOCTYPE svg PUBLIC "-//W3C//DTD SVG 1.0//EN" "http://www.w3.org/TR/2001/REC-SVG-20010904/DTD/svg10.dtd">
<svg version="1.0" id="Layer_1" xmlns="http://www.w3.org/2000/svg" xmlns:xlink="http://www.w3.org/1999/xlink" x="0px" y="0px"
	 width="600px" height="600px" viewBox="0 0 600 600" enable-background="new 0 0 600 600" xml:space="preserve">
<g>
	<rect x="165.741" y="0.5" width="20.655" height="20.655"/>
	<rect x="186.396" y="0.5" width="20.655" height="20.655"/>
	<rect x="227.707" y="0.5" width="20.654" height="20.655"/>
	<rect x="248.361" y="0.5" width="20.655" height="20.655"/>
	<rect x="310.327" y="0.5" width="20.655" height="20.655"/>
	<rect x="351.64" y="0.5" width="20.653" height="20.655"/>
	<rect x="372.293" y="0.5" width="20.655" height="20.655"/>
	<rect x="165.741" y="21.155" width="20.655" height="20.655"/>
	<rect x="227.707" y="21.155" width="20.654" height="20.655"/>
	<rect x="269.017" y="21.155" width="20.655" height="20.655"/>
	<rect x="289.672" y="21.155" width="20.654" height="20.655"/>
	<rect x="310.327" y="21.155" width="20.655" height="20.655"/>
	<rect x="372.293" y="21.155" width="20.655" height="20.655"/>
	<rect x="392.948" y="21.155" width="20.654" height="20.655"/>
	<rect x="227.707" y="41.81" width="20.654" height="20.655"/>
	<rect x="248.361" y="41.81" width="20.655" height="20.655"/>
	<rect x="330.982" y="41.81" width="20.655" height="20.655"/>
	<rect x="351.64" y="41.81" width="20.653" height="20.655"/>
	<rect x="372.293" y="41.81" width="20.655" height="20.655"/>
	<rect x="392.948" y="41.81" width="20.654" height="20.655"/>
	<rect x="413.604" y="41.81" width="20.654" height="20.655"/>
	<rect x="165.741" y="62.465" width="20.655" height="20.656"/>
	<rect x="207.052" y="62.465" width="20.655" height="20.656"/>
	<rect x="227.707" y="62.465" width="20.654" height="20.656"/>
	<rect x="372.293" y="62.465" width="20.655" height="20.656"/>
	<rect x="165.741" y="83.122" width="20.655" height="20.654"/>
	<rect x="269.017" y="83.122" width="20.655" height="20.654"/>
	<rect x="372.293" y="83.122" width="20.655" height="20.654"/>
	<rect x="413.604" y="83.122" width="20.654" height="20.654"/>
	<rect x="165.741" y="103.776" width="20.655" height="20.655"/>
	<rect x="186.396" y="103.776" width="20.655" height="20.655"/>
	<rect x="207.052" y="103.776" width="20.655" height="20.655"/>
	<rect x="227.707" y="103.776" width="20.654" height="20.655"/>
	<rect x="269.017" y="103.776" width="20.655" height="20.655"/>
	<rect x="289.672" y="103.776" width="20.654" height="20.655"/>
	<rect x="310.327" y="103.776" width="20.655" height="20.655"/>
	<rect x="330.982" y="103.776" width="20.655" height="20.655"/>
	<rect x="392.948" y="103.776" width="20.654" height="20.655"/>
	<rect x="165.741" y="124.431" width="20.655" height="20.655"/>
	<rect x="207.052" y="124.431" width="20.655" height="20.655"/>
	<rect x="248.361" y="124.431" width="20.655" height="20.655"/>
	<rect x="289.672" y="124.431" width="20.654" height="20.655"/>
	<rect x="330.982" y="124.431" width="20.655" height="20.655"/>
	<rect x="372.293" y="124.431" width="20.655" height="20.655"/>
	<rect x="413.604" y="124.431" width="20.654" height="20.655"/>
	<rect x="186.396" y="145.086" width="20.655" height="20.655"/>
	<rect x="269.017" y="145.086" width="20.655" height="20.655"/>
	<rect x="310.327" y="145.086" width="20.655" height="20.655"/>
	<rect x="351.64" y="145.086" width="20.653" height="20.655"/>
	<rect x="372.293" y="145.086" width="20.655" height="20.655"/>
	<rect x="392.948" y="145.086" width="20.654" height="20.655"/>
	<rect x="413.604" y="145.086" width="20.654" height="20.655"/>
	<rect x="62.465" y="165.741" width="20.656" height="20.655"/>
	<rect x="124.431" y="165.741" width="20.654" height="20.655"/>
	<rect x="186.396" y="165.741" width="20.655" height="20.655"/>
	<rect x="207.052" y="165.741" width="20.655" height="20.655"/>
	<rect x="227.707" y="165.741" width="20.654" height="20.655"/>
	<rect x="269.017" y="165.741" width="20.655" height="20.655"/>
	<rect x="289.672" y="165.741" width="20.654" height="20.655"/>
	<rect x="310.327" y="165.741" width="20.655" height="20.655"/>
	<rect x="351.64" y="165.741" width="20.653" height="20.655"/>
	<rect x="372.293" y="165.741" width="20.655" height="20.655"/>
	<rect x="475.568" y="165.741" width="20.656" height="20.655"/>
	<rect x="496.225" y="165.741" width="20.653" height="20.655"/>
	<rect x="516.879" y="165.741" width="20.655" height="20.655"/>
	<rect x="558.19" y="165.741" width="20.653" height="20.655"/>
	<rect x="578.844" y="165.741" width="20.656" height="20.655"/>
	<rect x="62.465" y="186.396" width="20.656" height="20.655"/>
	<rect x="103.776" y="186.396" width="20.655" height="20.655"/>
	<rect x="145.085" y="186.396" width="20.655" height="20.655"/>
	<rect x="207.052" y="186.396" width="20.655" height="20.655"/>
	<rect x="269.017" y="186.396" width="20.655" height="20.655"/>
	<rect x="310.327" y="186.396" width="20.655" height="20.655"/>
	<rect x="372.293" y="186.396" width="20.655" height="20.655"/>
	<rect x="392.948" y="186.396" width="20.654" height="20.655"/>
	<rect x="434.258" y="186.396" width="20.655" height="20.655"/>
	<rect x="454.914" y="186.396" width="20.654" height="20.655"/>
	<rect x="537.534" y="186.396" width="20.655" height="20.655"/>
	<rect x="578.844" y="186.396" width="20.656" height="20.655"/>
	<rect x="41.81" y="207.052" width="20.655" height="20.655"/>
	<rect x="62.465" y="207.052" width="20.656" height="20.655"/>
	<rect x="103.776" y="207.052" width="20.655" height="20.655"/>
	<rect x="124.431" y="207.052" width="20.654" height="20.655"/>
	<rect x="145.085" y="207.052" width="20.655" height="20.655"/>
	<rect x="165.741" y="207.052" width="20.655" height="20.655"/>
	<rect x="392.948" y="207.052" width="20.654" height="20.655"/>
	<rect x="434.258" y="207.052" width="20.655" height="20.655"/>
	<rect x="454.914" y="207.052" width="20.654" height="20.655"/>
	<rect x="496.225" y="207.052" width="20.653" height="20.655"/>
	<rect x="558.19" y="207.052" width="20.653" height="20.655"/>
	<rect x="21.155" y="227.707" width="20.654" height="20.655"/>
	<rect x="41.81" y="227.707" width="20.655" height="20.655"/>
	<rect x="62.465" y="227.707" width="20.656" height="20.655"/>
	<rect x="145.085" y="227.707" width="20.655" height="20.655"/>
	<rect x="165.741" y="227.707" width="20.655" height="20.655"/>
	<rect x="186.396" y="227.707" width="20.655" height="20.655"/>
	<rect x="454.914" y="227.707" width="20.654" height="20.655"/>
	<rect x="496.225" y="227.707" width="20.653" height="20.655"/>
	<rect x="537.534" y="227.707" width="20.655" height="20.655"/>
	<rect x="558.19" y="227.707" width="20.653" height="20.655"/>
	<rect x="21.155" y="248.362" width="20.654" height="20.655"/>
	<rect x="41.81" y="248.362" width="20.655" height="20.655"/>
	<rect x="124.431" y="248.362" width="20.654" height="20.655"/>
	<rect x="392.948" y="248.362" width="20.654" height="20.655"/>
	<rect x="413.604" y="248.362" width="20.654" height="20.655"/>
	<rect x="454.914" y="248.362" width="20.654" height="20.655"/>
	<rect x="516.879" y="248.362" width="20.655" height="20.655"/>
	<rect x="62.465" y="269.017" width="20.656" height="20.655"/>
	<rect x="103.776" y="269.017" width="20.655" height="20.655"/>
	<rect x="392.948" y="269.017" width="20.654" height="20.655"/>
	<rect x="413.604" y="269.017" width="20.654" height="20.655"/>
	<rect x="434.258" y="269.017" width="20.655" height="20.655"/>
	<rect x="475.568" y="269.017" width="20.656" height="20.655"/>
	<rect x="516.879" y="269.017" width="20.655" height="20.655"/>
	<rect x="558.19" y="269.017" width="20.653" height="20.655"/>
	<rect x="41.81" y="289.672" width="20.655" height="20.655"/>
	<rect x="83.122" y="289.672" width="20.654" height="20.655"/>
	<rect x="124.431" y="289.672" width="20.654" height="20.655"/>
	<rect x="413.604" y="289.672" width="20.654" height="20.655"/>
	<rect x="434.258" y="289.672" width="20.655" height="20.655"/>
	<rect x="475.568" y="289.672" width="20.656" height="20.655"/>
	<rect x="578.844" y="289.672" width="20.656" height="20.655"/>
	<rect x="0.5" y="310.327" width="20.655" height="20.655"/>
	<rect x="21.155" y="310.327" width="20.654" height="20.655"/>
	<rect x="62.465" y="310.327" width="20.656" height="20.655"/>
	<rect x="103.776" y="310.327" width="20.655" height="20.655"/>
	<rect x="165.741" y="310.327" width="20.655" height="20.655"/>
	<rect x="186.396" y="310.327" width="20.655" height="20.655"/>
	<rect x="434.258" y="310.327" width="20.655" height="20.655"/>
	<rect x="475.568" y="310.327" width="20.656" height="20.655"/>
	<rect x="496.225" y="310.327" width="20.653" height="20.655"/>
	<rect x="558.19" y="310.327" width="20.653" height="20.655"/>
	<rect x="62.465" y="330.982" width="20.656" height="20.655"/>
	<rect x="83.122" y="330.982" width="20.654" height="20.655"/>
	<rect x="103.776" y="330.982" width="20.655" height="20.655"/>
	<rect x="124.431" y="330.982" width="20.654" height="20.655"/>
	<rect x="145.085" y="330.982" width="20.655" height="20.655"/>
	<rect x="186.396" y="330.982" width="20.655" height="20.655"/>
	<rect x="392.948" y="330.982" width="20.654" height="20.655"/>
	<rect x="413.604" y="330.982" width="20.654" height="20.655"/>
	<rect x="434.258" y="330.982" width="20.655" height="20.655"/>
	<rect x="558.19" y="330.982" width="20.653" height="20.655"/>
	<rect x="62.465" y="351.64" width="20.656" height="20.653"/>
	<rect x="83.122" y="351.64" width="20.654" height="20.653"/>
	<rect x="413.604" y="351.64" width="20.654" height="20.653"/>
	<rect x="434.258" y="351.64" width="20.655" height="20.653"/>
	<rect x="454.914" y="351.64" width="20.654" height="20.653"/>
	<rect x="475.568" y="351.64" width="20.656" height="20.653"/>
	<rect x="537.534" y="351.64" width="20.655" height="20.653"/>
	<rect x="558.19" y="351.64" width="20.653" height="20.653"/>
	<rect x="578.844" y="351.64" width="20.656" height="20.653"/>
	<rect x="0.5" y="372.293" width="20.655" height="20.655"/>
	<rect x="124.431" y="372.293" width="20.654" height="20.655"/>
	<rect x="145.085" y="372.293" width="20.655" height="20.655"/>
	<rect x="165.741" y="372.293" width="20.655" height="20.655"/>
	<rect x="413.604" y="372.293" width="20.654" height="20.655"/>
	<rect x="434.258" y="372.293" width="20.655" height="20.655"/>
	<rect x="475.568" y="372.293" width="20.656" height="20.655"/>
	<rect x="558.19" y="372.293" width="20.653" height="20.655"/>
	<rect x="578.844" y="372.293" width="20.656" height="20.655"/>
	<rect x="83.122" y="392.948" width="20.654" height="20.654"/>
	<rect x="103.776" y="392.948" width="20.655" height="20.654"/>
	<rect x="145.085" y="392.948" width="20.655" height="20.654"/>
	<rect x="207.052" y="392.948" width="20.655" height="20.654"/>
	<rect x="248.361" y="392.948" width="20.655" height="20.654"/>
	<rect x="269.017" y="392.948" width="20.655" height="20.654"/>
	<rect x="289.672" y="392.948" width="20.654" height="20.654"/>
	<rect x="310.327" y="392.948" width="20.655" height="20.654"/>
	<rect x="372.293" y="392.948" width="20.655" height="20.654"/>
	<rect x="392.948" y="392.948" width="20.654" height="20.654"/>
	<rect x="413.604" y="392.948" width="20.654" height="20.654"/>
	<rect x="475.568" y="392.948" width="20.656" height="20.654"/>
	<rect x="558.19" y="392.948" width="20.653" height="20.654"/>
	<rect x="0.5" y="413.604" width="20.655" height="20.654"/>
	<rect x="62.465" y="413.604" width="20.656" height="20.654"/>
	<rect x="83.122" y="413.604" width="20.654" height="20.654"/>
	<rect x="103.776" y="413.604" width="20.655" height="20.654"/>
	<rect x="124.431" y="413.604" width="20.654" height="20.654"/>
	<rect x="145.085" y="413.604" width="20.655" height="20.654"/>
	<rect x="248.361" y="413.604" width="20.655" height="20.654"/>
	<rect x="269.017" y="413.604" width="20.655" height="20.654"/>
	<rect x="310.327" y="413.604" width="20.655" height="20.654"/>
	<rect x="330.982" y="413.604" width="20.655" height="20.654"/>
	<rect x="351.64" y="413.604" width="20.653" height="20.654"/>
	<rect x="372.293" y="413.604" width="20.655" height="20.654"/>
	<rect x="392.948" y="413.604" width="20.654" height="20.654"/>
	<rect x="413.604" y="413.604" width="20.654" height="20.654"/>
	<rect x="434.258" y="413.604" width="20.655" height="20.654"/>
	<rect x="454.914" y="413.604" width="20.654" height="20.654"/>
	<rect x="475.568" y="413.604" width="20.656" height="20.654"/>
	<rect x="496.225" y="413.604" width="20.653" height="20.654"/>
	<rect x="537.534" y="413.604" width="20.655" height="20.654"/>
	<rect x="558.19" y="413.604" width="20.653" height="20.654"/>
	<rect x="578.844" y="413.604" width="20.656" height="20.654"/>
	<rect x="165.741" y="434.258" width="20.655" height="20.656"/>
	<rect x="186.396" y="434.258" width="20.655" height="20.656"/>
	<rect x="207.052" y="434.258" width="20.655" height="20.656"/>
	<rect x="269.017" y="434.258" width="20.655" height="20.656"/>
	<rect x="310.327" y="434.258" width="20.655" height="20.656"/>
	<rect x="351.64" y="434.258" width="20.653" height="20.656"/>
	<rect x="392.948" y="434.258" width="20.654" height="20.656"/>
	<rect x="413.604" y="434.258" width="20.654" height="20.656"/>
	<rect x="496.225" y="434.258" width="20.653" height="20.656"/>
	<rect x="558.19" y="434.258" width="20.653" height="20.656"/>
	<rect x="578.844" y="434.258" width="20.656" height="20.656"/>
	<rect x="207.052" y="454.914" width="20.655" height="20.654"/>
	<rect x="289.672" y="454.914" width="20.654" height="20.654"/>
	<rect x="310.327" y="454.914" width="20.655" height="20.654"/>
	<rect x="413.604" y="454.914" width="20.654" height="20.654"/>
	<rect x="454.914" y="454.914" width="20.654" height="20.654"/>
	<rect x="496.225" y="454.914" width="20.653" height="20.654"/>
	<rect x="516.879" y="454.914" width="20.655" height="20.654"/>
	<rect x="537.534" y="454.914" width="20.655" height="20.654"/>
	<rect x="558.19" y="454.914" width="20.653" height="20.654"/>
	<rect x="248.361" y="475.568" width="20.655" height="20.656"/>
	<rect x="372.293" y="475.568" width="20.655" height="20.656"/>
	<rect x="413.604" y="475.568" width="20.654" height="20.656"/>
	<rect x="496.225" y="475.568" width="20.653" height="20.656"/>
	<rect x="537.534" y="475.568" width="20.655" height="20.656"/>
	<rect x="186.396" y="496.225" width="20.655" height="20.654"/>
	<rect x="207.052" y="496.225" width="20.655" height="20.654"/>
	<rect x="227.707" y="496.225" width="20.654" height="20.654"/>
	<rect x="248.361" y="496.225" width="20.655" height="20.654"/>
	<rect x="289.672" y="496.225" width="20.654" height="20.654"/>
	<rect x="310.327" y="496.225" width="20.655" height="20.654"/>
	<rect x="330.982" y="496.225" width="20.655" height="20.654"/>
	<rect x="372.293" y="496.225" width="20.655" height="20.654"/>
	<rect x="413.604" y="496.225" width="20.654" height="20.654"/>
	<rect x="434.258" y="496.225" width="20.655" height="20.654"/>
	<rect x="454.914" y="496.225" width="20.654" height="20.654"/>
	<rect x="475.568" y="496.225" width="20.656" height="20.654"/>
	<rect x="496.225" y="496.225" width="20.653" height="20.654"/>
	<rect x="516.879" y="496.225" width="20.655" height="20.654"/>
	<rect x="165.741" y="516.88" width="20.655" height="20.654"/>
	<rect x="186.396" y="516.88" width="20.655" height="20.654"/>
	<rect x="207.052" y="516.88" width="20.655" height="20.654"/>
	<rect x="372.293" y="516.88" width="20.655" height="20.654"/>
	<rect x="392.948" y="516.88" width="20.654" height="20.654"/>
	<rect x="454.914" y="516.88" width="20.654" height="20.654"/>
	<rect x="496.225" y="516.88" width="20.653" height="20.654"/>
	<rect x="516.879" y="516.88" width="20.655" height="20.654"/>
	<rect x="537.534" y="516.88" width="20.655" height="20.654"/>
	<rect x="578.844" y="516.88" width="20.656" height="20.654"/>
	<rect x="186.396" y="537.534" width="20.655" height="20.655"/>
	<rect x="207.052" y="537.534" width="20.655" height="20.655"/>
	<rect x="227.707" y="537.534" width="20.654" height="20.655"/>
	<rect x="248.361" y="537.534" width="20.655" height="20.655"/>
	<rect x="330.982" y="537.534" width="20.655" height="20.655"/>
	<rect x="351.64" y="537.534" width="20.653" height="20.655"/>
	<rect x="413.604" y="537.534" width="20.654" height="20.655"/>
	<rect x="475.568" y="537.534" width="20.656" height="20.655"/>
	<rect x="496.225" y="537.534" width="20.653" height="20.655"/>
	<rect x="516.879" y="537.534" width="20.655" height="20.655"/>
	<rect x="537.534" y="537.534" width="20.655" height="20.655"/>
	<rect x="578.844" y="537.534" width="20.656" height="20.655"/>
	<rect x="207.052" y="558.19" width="20.655" height="20.653"/>
	<rect x="269.017" y="558.19" width="20.655" height="20.653"/>
	<rect x="289.672" y="558.19" width="20.654" height="20.653"/>
	<rect x="310.327" y="558.19" width="20.655" height="20.653"/>
	<rect x="392.948" y="558.19" width="20.654" height="20.653"/>
	<rect x="413.604" y="558.19" width="20.654" height="20.653"/>
	<rect x="434.258" y="558.19" width="20.655" height="20.653"/>
	<rect x="454.914" y="558.19" width="20.654" height="20.653"/>
	<rect x="475.568" y="558.19" width="20.656" height="20.653"/>
	<rect x="558.19" y="558.19" width="20.653" height="20.653"/>
	<rect x="186.396" y="578.844" width="20.655" height="20.656"/>
	<rect x="289.672" y="578.844" width="20.654" height="20.656"/>
	<rect x="330.982" y="578.844" width="20.655" height="20.656"/>
	<rect x="351.64" y="578.844" width="20.653" height="20.656"/>
	<rect x="372.293" y="578.844" width="20.655" height="20.656"/>
	<rect x="413.604" y="578.844" width="20.654" height="20.656"/>
	<rect x="434.258" y="578.844" width="20.655" height="20.656"/>
	<rect x="496.225" y="578.844" width="20.653" height="20.656"/>
	<rect x="516.879" y="578.844" width="20.655" height="20.656"/>
	<rect x="558.19" y="578.844" width="20.653" height="20.656"/>
	<path d="M0.5,96.246V49.299C0.5,22.39,22.651,0.5,49.862,0.5h45.863c27.208,0,49.361,21.89,49.361,48.799v95.787l-95.224-0.027
		C22.651,145.059,0.5,123.168,0.5,96.246 M22.188,96.246c0,14.957,12.416,27.125,27.682,27.125l73.529,0.021V49.299
		c0-14.948-12.415-27.111-27.673-27.111H49.862c-15.259,0-27.675,12.163-27.675,27.111V96.246z"/>
	<path d="M599.5,96.246V49.299C599.5,22.39,577.349,0.5,550.136,0.5h-45.861c-27.209,0-49.36,21.89-49.36,48.799v95.787
		l95.222-0.027C577.349,145.059,599.5,123.168,599.5,96.246 M577.813,96.246c0,14.957-12.416,27.125-27.682,27.125l-73.529,0.021
		V49.299c0-14.948,12.415-27.111,27.673-27.111h45.861c15.261,0,27.677,12.163,27.677,27.111V96.246z"/>
	<path d="M0.5,503.755v46.947c0,26.907,22.151,48.798,49.362,48.798h45.863c27.208,0,49.361-21.891,49.361-48.798v-95.788
		l-95.224,0.026C22.651,454.94,0.5,476.832,0.5,503.755 M22.188,503.755c0-14.958,12.416-27.125,27.682-27.125l73.529-0.022v74.095
		c0,14.947-12.415,27.11-27.673,27.11H49.862c-15.259,0-27.675-12.163-27.675-27.11V503.755z"/>
	<path d="M41.81,86.907V58.664c0-9.293,7.681-16.854,17.121-16.854h27.724c9.438,0,17.121,7.561,17.121,16.854v45.112l-44.845-0.025
		C49.491,103.751,41.81,96.199,41.81,86.907"/>
	<path d="M558.19,86.907V58.664c0-9.293-7.682-16.854-17.122-16.854h-27.725c-9.438,0-17.119,7.561-17.119,16.854v45.112
		l44.844-0.025C550.509,103.751,558.19,96.199,558.19,86.907"/>
	<path d="M41.81,513.093v28.243c0,9.293,7.681,16.854,17.121,16.854h27.724c9.438,0,17.121-7.562,17.121-16.854v-45.111
		l-44.845,0.023C49.491,496.248,41.81,503.801,41.81,513.093"/>
	<path fill="#FF5000" d="M220.398,299.996c0,43.967,35.64,79.604,79.606,79.604c43.959,0,79.597-35.638,79.597-79.604
		c0-43.957-35.638-79.597-79.597-79.597C256.039,220.399,220.398,256.04,220.398,299.996"/>
	<path fill-rule="evenodd" clip-rule="evenodd" fill="#201D1E" d="M284.832,299.176c-0.694-4.434-3.858-7.537-9.188-7.537h-8.282
		v8.479v0.216v7.203h0.012c0,2.714,0.008,5.438-0.012,8.158c0,0.499,0.141,0.715,0.662,0.694c0.758-0.032,1.521-0.032,2.277,0
		c0.516,0.021,0.68-0.182,0.673-0.688c-0.022-1.937,0.009-3.876-0.022-5.809c-0.006-0.571,0.162-0.779,0.75-0.771
		c1.493,0.032,2.988,0.021,4.483,0.009C281.666,309.079,285.67,304.581,284.832,299.176 M276.608,305.386h-0.032
		c-0.132,0.011-0.26,0.026-0.397,0.026c-0.709,0.014-1.418,0-2.13,0c-0.787,0-1.565,0.002-2.354,0.002
		c-0.761,0-0.747-0.192-0.732-0.746c0.023-1.489-0.005-2.968,0.006-4.455c-0.011-1.478,0.018-2.627-0.006-4.112
		c-0.014-0.56,0-0.75,0.709-0.75c0.798,0,3.723-0.002,4.507,0c0.134,0,0.265,0.017,0.394,0.023c0.012,0.009,0.026,0.009,0.026,0.009
		c2.744,0.242,4.75,2.172,4.731,4.829C281.349,302.878,279.343,305.14,276.608,305.386"/>
	<path fill="#201D1E" d="M313.52,302.7h3.041c0.279-1.233,0.351-2.528,0.154-3.865c-0.426-2.93-2.154-5.359-4.446-6.699
		c-1.057-0.618-2.238-1.013-3.46-1.112h-0.91c-0.061-0.009-0.121-0.009-0.185-0.013c-0.061,0.004-0.121,0.004-0.188,0.013h-0.907
		c-1.223,0.099-2.403,0.494-3.461,1.112c-2.293,1.34-4.02,3.769-4.447,6.699c-0.836,5.793,3.165,10.837,8.651,10.892
		c1.492,0.009,5.55,0.023,7.036-0.012c0.185-0.005,0.32,0.017,0.433,0.064v-3.942c-0.106,0.046-0.245,0.06-0.424,0.05
		c-0.783-0.053-4.127-0.013-4.909-0.016c-0.716,0-1.422,0.012-2.134,0c-0.135,0-0.264-0.017-0.397-0.023
		c-0.009-0.005-0.02-0.005-0.031-0.011c-1.92-0.184-3.475-1.43-4.23-3.138h10.027H313.52z M302.337,299.061
		c0.484-2.282,2.271-4.072,4.599-4.293c0,0,0.022,0,0.031-0.006c0.134-0.012,0.263-0.023,0.397-0.026h0.35h0.35
		c0.134,0.003,0.265,0.014,0.396,0.026c0.013,0.006,0.021,0.006,0.021,0.006c2.34,0.221,4.131,2.011,4.607,4.293H302.337z"/>
	<path fill="#201D1E" d="M367.337,293.775c-1.686-1.705-3.965-2.651-6.416-2.662h-0.04c-2.407,0-4.66,0.924-6.354,2.607
		c-1.706,1.698-2.652,3.974-2.657,6.413c-0.009,5.047,3.954,9.021,9.019,9.032h0.033c5.026,0,8.983-3.909,9.003-8.929
		C369.941,297.776,369.02,295.479,367.337,293.775 M366.217,300.139c0,2.881-2.285,5.212-5.135,5.311
		c-0.055,0-0.102,0.012-0.159,0.012h-0.011h-0.013c-2.934,0-5.313-2.383-5.313-5.322v-0.049v-0.056c0-0.441,0.069-0.873,0.19-1.291
		c0.611-2.256,2.674-3.916,5.123-3.916h0.009h0.015c0.121,0,0.235,0.008,0.356,0.02c2.162,0.147,3.966,1.597,4.643,3.57
		c0.015,0.049,0.037,0.096,0.053,0.14c0,0.014,0.002,0.02,0.002,0.025c0.155,0.467,0.24,0.956,0.24,1.453
		c0,0.018-0.003,0.038-0.003,0.058C366.214,300.109,366.217,300.124,366.217,300.139"/>
	<path fill-rule="evenodd" clip-rule="evenodd" fill="#201D1E" d="M299.633,291.638h-2.195c-0.386,0-0.796-0.008-1.314-0.008
		c-2.777,0-5.564-0.288-7.607,1.763c-1.702,1.7-2.229,4.172-2.207,6.377c0.023,2.867,0,8.938,0,9.364l3.717-0.003
		c0-1.267-0.015-6.774-0.005-9.568c0-2.83,1.567-4.204,6.259-4.204h2.867c0.073,0,0.129,0,0.175-0.006h0.311V291.638z"/>
	<path fill="#201D1E" d="M265.5,294.917v-3.278h-3.709l-0.014,10.307c0,2.575-2.507,4.163-5.06,4.181
		c-2.369,0.017-4.835-1.536-4.835-4.123c0-2.862-0.023-9.982-0.023-10.253v-0.111h-3.714v0.111v0.775v0.173v4.442h0.01
		c0,1.628,0,3.153-0.018,4.741c-0.018,1.291,0.311,2.465,0.922,3.584c2.426,4.481,7.742,5.17,11.474,3.665
		c3.187-1.29,4.993-4.711,4.993-7.526C265.526,299.299,265.511,296.813,265.5,294.917"/>
	<path fill="#201D1E" d="M246.776,302.328c-0.547-2.312-2.527-3.766-4.906-3.775c-0.295-0.003-0.594-0.003-0.891-0.003v-0.008
		h-5.694h-0.481c-0.718-0.003-1.392-0.644-1.57-1.283c-0.162-0.583,0.137-1.372,0.737-1.657c0.352-0.167,0.783-0.228,1.178-0.233
		c2.357-0.02,4.712-0.017,7.068-0.017h0.527h1.392h1.334h0.028v-3.715h-10.623v0.02h-0.291c-1.295,0-2.383,0.485-3.242,1.461
		c-1.706,1.923-1.689,5.553,0.041,7.467c0.919,1.015,2.049,1.68,3.438,1.671c0.221-0.006,0.44,0,0.659-0.006h4.576
		c0.657,0.006,1.32,0.006,1.976,0.015c1.421,0.012,2.139,0.935,1.635,2.195c-0.314,0.778-0.96,0.937-1.704,0.937
		c-2.5,0-4.996,0.003-7.496,0.003c-0.773,0-1.54-0.022-2.309,0.016h-0.012h-0.646v3.716h0.286c0.098,0.011,0.172,0.023,0.242,0.023
		c3.509,0,7.02,0.021,10.535-0.023c0.571-0.009,1.188-0.213,1.71-0.467C246.424,307.587,247.41,305.021,246.776,302.328"/>
	<path fill="#201D1E" d="M333.94,302.328c-0.544-2.312-2.529-3.766-4.904-3.775c-0.294-0.003-0.591-0.003-0.887-0.003v-0.008h-5.699
		h-0.481c-0.718-0.003-1.393-0.644-1.571-1.283c-0.161-0.583,0.142-1.372,0.741-1.657c0.354-0.167,0.783-0.228,1.178-0.233
		c2.357-0.02,4.715-0.017,7.065-0.017h0.53h1.389h1.337h0.029v-3.715H322.04v0.02h-0.288c-1.298,0-2.383,0.485-3.245,1.461
		c-1.7,1.923-1.685,5.553,0.046,7.467c0.917,1.015,2.051,1.68,3.435,1.671c0.224-0.006,0.442,0,0.664-0.006h4.569
		c0.66,0.006,1.32,0.006,1.982,0.015c1.421,0.012,2.139,0.935,1.631,2.195c-0.313,0.778-0.956,0.937-1.7,0.937
		c-2.501,0-5.001,0.003-7.5,0.003c-0.771,0-1.541-0.022-2.308,0.016h-0.012h-0.651v3.716h0.291c0.098,0.011,0.173,0.023,0.245,0.023
		c3.51,0,7.017,0.021,10.528-0.023c0.574-0.009,1.19-0.213,1.715-0.467C333.592,307.587,334.581,305.021,333.94,302.328"/>
	<path fill="#201D1E" d="M350.835,302.328c-0.545-2.312-2.527-3.766-4.907-3.775c-0.294-0.003-0.594-0.003-0.891-0.003v-0.008
		h-5.693h-0.487c-0.711-0.003-1.39-0.644-1.568-1.283c-0.166-0.583,0.146-1.372,0.741-1.657c0.349-0.167,0.781-0.228,1.176-0.233
		c2.36-0.02,4.718-0.017,7.071-0.017h0.527h1.39h1.336h0.028v-3.715h-10.621v0.02h-0.293c-1.297,0-2.38,0.485-3.245,1.461
		c-1.703,1.923-1.683,5.553,0.04,7.467c0.92,1.015,2.052,1.68,3.441,1.671c0.218-0.006,0.439,0,0.659-0.006h4.573
		c0.657,0.006,1.319,0.006,1.977,0.015c1.424,0.012,2.14,0.935,1.637,2.195c-0.311,0.778-0.957,0.937-1.7,0.937
		c-2.5,0-5.002,0.003-7.498,0.003c-0.772,0-1.543-0.022-2.311,0.016h-0.009h-0.648v3.716h0.283c0.098,0.011,0.172,0.023,0.247,0.023
		c3.51,0,7.02,0.021,10.534-0.023c0.568-0.009,1.182-0.213,1.709-0.467C350.48,307.587,351.469,305.021,350.835,302.328"/>
	<path fill-rule="evenodd" clip-rule="evenodd" fill="#FFFFFF" d="M284.832,298.248c-0.694-4.432-3.858-7.541-9.188-7.541h-8.282
		v8.486v0.208v7.21h0.012c0,2.714,0.008,5.437-0.012,8.158c0,0.501,0.141,0.711,0.662,0.699c0.758-0.034,1.521-0.034,2.277,0
		c0.516,0.012,0.68-0.19,0.673-0.691c-0.022-1.939,0.009-3.874-0.022-5.807c-0.006-0.572,0.162-0.783,0.75-0.772
		c1.493,0.026,2.988,0.02,4.483,0.003C281.666,308.154,285.67,303.656,284.832,298.248 M276.608,304.457h-0.032
		c-0.132,0.012-0.26,0.025-0.397,0.025c-0.709,0.015-1.418,0-2.13,0c-0.787,0-1.565,0.007-2.354,0.007
		c-0.761,0-0.747-0.192-0.732-0.751c0.023-1.482-0.005-2.967,0.006-4.45c-0.011-1.483,0.018-2.633-0.006-4.114
		c-0.014-0.56,0-0.747,0.709-0.747c0.798,0,3.723-0.009,4.507,0c0.134,0,0.265,0.02,0.394,0.026
		c0.012,0.002,0.026,0.002,0.026,0.002c2.744,0.242,4.75,2.172,4.731,4.833C281.349,301.945,279.343,304.216,276.608,304.457"/>
	<path fill="#FFFFFF" d="M313.52,301.771h3.041c0.279-1.232,0.351-2.523,0.154-3.866c-0.426-2.931-2.154-5.357-4.446-6.697
		c-1.057-0.616-2.238-1.014-3.46-1.114h-0.91c-0.061-0.004-0.121-0.004-0.185-0.007c-0.061,0.003-0.121,0.003-0.188,0.007h-0.907
		c-1.223,0.101-2.403,0.498-3.461,1.114c-2.293,1.34-4.02,3.766-4.447,6.697c-0.836,5.795,3.165,10.84,8.651,10.892
		c1.492,0.015,5.55,0.026,7.036-0.006c0.185-0.006,0.32,0.021,0.433,0.063v-3.938c-0.106,0.04-0.245,0.061-0.424,0.044
		c-0.783-0.049-4.127-0.01-4.909-0.017c-0.716,0-1.422,0.013-2.134,0c-0.135,0-0.264-0.014-0.397-0.027h-0.031
		c-1.92-0.182-3.475-1.436-4.23-3.145h10.027H313.52z M302.337,298.132c0.484-2.279,2.271-4.071,4.599-4.292
		c0,0,0.022,0,0.031-0.003c0.134-0.015,0.263-0.023,0.397-0.032h0.35h0.35c0.134,0.009,0.265,0.018,0.396,0.032
		c0.013,0.003,0.021,0.003,0.021,0.003c2.34,0.221,4.131,2.013,4.607,4.292H302.337z"/>
	<path fill="#FFFFFF" d="M367.337,292.848c-1.686-1.703-3.965-2.653-6.416-2.659h-0.04c-2.407,0-4.66,0.924-6.354,2.607
		c-1.706,1.697-2.652,3.971-2.657,6.412c-0.009,5.048,3.954,9.016,9.019,9.034h0.033c5.026,0,8.983-3.916,9.003-8.93
		C369.941,296.848,369.02,294.554,367.337,292.848 M366.217,299.213c0,2.876-2.285,5.21-5.135,5.311
		c-0.055,0-0.102,0.008-0.159,0.008h-0.011h-0.013c-2.934,0-5.313-2.383-5.313-5.318v-0.052v-0.052c0-0.437,0.069-0.876,0.19-1.291
		c0.611-2.252,2.674-3.919,5.123-3.919h0.009h0.015c0.121,0,0.235,0.016,0.356,0.019c2.162,0.152,3.966,1.604,4.643,3.572
		c0.015,0.046,0.037,0.095,0.053,0.138c0,0.011,0.002,0.02,0.002,0.029c0.155,0.463,0.24,0.945,0.24,1.452
		c0,0.014-0.003,0.035-0.003,0.055C366.214,299.178,366.217,299.196,366.217,299.213"/>
	<path fill-rule="evenodd" clip-rule="evenodd" fill="#FFFFFF" d="M299.633,290.707h-2.195c-0.386,0-0.796-0.002-1.314-0.002
		c-2.777,0-5.564-0.292-7.607,1.761c-1.702,1.703-2.229,4.171-2.207,6.375c0.023,2.868,0,8.942,0,9.363l3.717-0.004
		c0-1.262-0.015-6.771-0.005-9.563c0-2.831,1.567-4.204,6.259-4.204h2.867c0.073,0,0.129,0,0.175-0.006h0.311V290.707z"/>
	<path fill="#FFFFFF" d="M265.5,293.995v-3.288h-3.709l-0.014,10.31c0,2.58-2.507,4.164-5.06,4.185
		c-2.369,0.015-4.835-1.535-4.835-4.126c0-2.862-0.023-9.985-0.023-10.25v-0.118h-3.714v0.118v0.772v0.174v4.447h0.01
		c0,1.623,0,3.144-0.018,4.735c-0.018,1.29,0.311,2.466,0.922,3.584c2.426,4.481,7.742,5.175,11.474,3.662
		c3.187-1.291,4.993-4.705,4.993-7.525C265.526,298.373,265.511,295.888,265.5,293.995"/>
	<path fill="#FFFFFF" d="M246.776,301.404c-0.547-2.313-2.527-3.768-4.906-3.779c-0.295-0.005-0.594-0.005-0.891-0.005v-0.003
		h-5.694h-0.481c-0.718-0.003-1.392-0.646-1.57-1.285c-0.162-0.58,0.137-1.366,0.737-1.658c0.352-0.163,0.783-0.224,1.178-0.227
		c2.357-0.029,4.712-0.02,7.068-0.02h0.527h1.392h1.334h0.028v-3.72h-10.623v0.021h-0.291c-1.295,0-2.383,0.486-3.242,1.464
		c-1.706,1.922-1.689,5.55,0.041,7.466c0.919,1.014,2.049,1.682,3.438,1.67c0.221-0.003,0.44,0,0.659-0.003h4.576
		c0.657,0.003,1.32,0.003,1.976,0.015c1.421,0.009,2.139,0.93,1.635,2.195c-0.314,0.781-0.96,0.934-1.704,0.934
		c-2.5,0-4.996,0.003-7.496,0.003c-0.773,0-1.54-0.023-2.309,0.019h-0.012h-0.646v3.71h0.286c0.098,0.018,0.172,0.023,0.242,0.023
		c3.509,0,7.02,0.021,10.535-0.023c0.571-0.003,1.188-0.211,1.71-0.46C246.424,306.662,247.41,304.098,246.776,301.404"/>
	<path fill="#FFFFFF" d="M333.94,301.404c-0.544-2.313-2.529-3.768-4.904-3.779c-0.294-0.005-0.591-0.005-0.887-0.005v-0.003h-5.699
		h-0.481c-0.718-0.003-1.393-0.646-1.571-1.285c-0.161-0.58,0.142-1.366,0.741-1.658c0.354-0.163,0.783-0.224,1.178-0.227
		c2.357-0.029,4.715-0.02,7.065-0.02h0.53h1.389h1.337h0.029v-3.72H322.04v0.021h-0.288c-1.298,0-2.383,0.486-3.245,1.464
		c-1.7,1.922-1.685,5.55,0.046,7.466c0.917,1.014,2.051,1.682,3.435,1.67c0.224-0.003,0.442,0,0.664-0.003h4.569
		c0.66,0.003,1.32,0.003,1.982,0.015c1.421,0.009,2.139,0.93,1.631,2.195c-0.313,0.781-0.956,0.934-1.7,0.934
		c-2.501,0-5.001,0.003-7.5,0.003c-0.771,0-1.541-0.023-2.308,0.019h-0.012h-0.651v3.71h0.291c0.098,0.018,0.173,0.023,0.245,0.023
		c3.51,0,7.017,0.021,10.528-0.023c0.574-0.003,1.19-0.211,1.715-0.46C333.592,306.662,334.581,304.098,333.94,301.404"/>
	<path fill="#FFFFFF" d="M350.835,301.404c-0.545-2.313-2.527-3.768-4.907-3.779c-0.294-0.005-0.594-0.005-0.891-0.005v-0.003
		h-5.693h-0.487c-0.711-0.003-1.39-0.646-1.568-1.285c-0.166-0.58,0.146-1.366,0.741-1.658c0.349-0.163,0.781-0.224,1.176-0.227
		c2.36-0.029,4.718-0.02,7.071-0.02h0.527h1.39h1.336h0.028v-3.72h-10.621v0.021h-0.293c-1.297,0-2.38,0.486-3.245,1.464
		c-1.703,1.922-1.683,5.55,0.04,7.466c0.92,1.014,2.052,1.682,3.441,1.67c0.218-0.003,0.439,0,0.659-0.003h4.573
		c0.657,0.003,1.319,0.003,1.977,0.015c1.424,0.009,2.14,0.93,1.637,2.195c-0.311,0.781-0.957,0.934-1.7,0.934
		c-2.5,0-5.002,0.003-7.498,0.003c-0.772,0-1.543-0.023-2.311,0.019h-0.009h-0.648v3.71h0.283c0.098,0.018,0.172,0.023,0.247,0.023
		c3.51,0,7.02,0.021,10.534-0.023c0.568-0.003,1.182-0.211,1.709-0.46C350.48,306.662,351.469,304.098,350.835,301.404"/>
</g>
<g>
</g>
<g>
</g>
<g>
</g>
<g>
</g>
<g>
</g>
<g>
</g>
</svg>
